HIERARCHY
ROOT hip
{
	OFFSET 0.000000 0.000000 0.000000 
	CHANNELS 6 Xposition Yposition Zposition Xrotation Zrotation Yrotation
	JOINT abdomen
	{
		OFFSET 0.000000 3.402643 0.000000 
		CHANNELS 3 Xrotation Zrotation Yrotation
		JOINT chest
		{
			OFFSET 0.000000 8.438565 -0.680529 
			CHANNELS 3 Xrotation Zrotation Yrotation
			JOINT neck
			{
				OFFSET 0.000000 10.207942 -0.272212 
				CHANNELS 3 Xrotation Zrotation Yrotation
				JOINT head
				{
					OFFSET 0.000000 3.130431 0.000000 
					CHANNELS 3 Xrotation Zrotation Yrotation
					End Site
					{
						OFFSET 0.000000 3.130435 0.000000 
					}
				}
			}
			JOINT lCollar
			{
				OFFSET 3.470700 6.669187 -0.816635 
				CHANNELS 3 Yrotation Zrotation Xrotation
				JOINT lShldr
				{
					OFFSET 3.198488 0.000000 0.000000 
					CHANNELS 3 Zrotation Yrotation Xrotation
					JOINT lForeArm
					{
						OFFSET 10.139888 0.000000 0.000000 
						CHANNELS 3 Yrotation Zrotation Xrotation
						JOINT lHand
						{
							OFFSET 8.370511 0.000000 0.000000 
							CHANNELS 3 Zrotation Yrotation Xrotation
							End Site
							{
								OFFSET 4.083176 0.000000 0.000000 
							}
						}
					}
				}
			}
			JOINT rCollar
			{
				OFFSET -3.470700 6.669187 -0.816635 
				CHANNELS 3 Yrotation Zrotation Xrotation
				JOINT rShldr
				{
					OFFSET -3.198488 0.000000 0.000000 
					CHANNELS 3 Zrotation Yrotation Xrotation
					JOINT rForeArm
					{
						OFFSET -10.139888 0.000000 0.000000 
						CHANNELS 3 Yrotation Zrotation Xrotation
						JOINT rHand
						{
							OFFSET -8.370511 0.000000 0.000000 
							CHANNELS 3 Zrotation Yrotation Xrotation
							End Site
							{
								OFFSET -4.083176 0.000000 0.000000 
							}
						}
					}
				}
			}
		}
	}
	JOINT lThigh
	{
		OFFSET 5.308129 -1.633274 1.361059 
		CHANNELS 3 Xrotation Zrotation Yrotation
		JOINT lShin
		{
			OFFSET -2.041588 -20.007561 0.000000 
			CHANNELS 3 Xrotation Zrotation Yrotation
			JOINT lFoot
			{
				OFFSET 0.000000 -19.190928 -1.224953 
				CHANNELS 3 Xrotation Yrotation Zrotation
				End Site
				{
					OFFSET 0.000000 -2.449906 4.627600 
				}
			}
		}
	}
	JOINT rThigh
	{
		OFFSET -5.308129 -1.633274 1.361059 
		CHANNELS 3 Xrotation Zrotation Yrotation
		JOINT rShin
		{
			OFFSET 2.041588 -20.007561 0.000000 
			CHANNELS 3 Xrotation Zrotation Yrotation
			JOINT rFoot
			{
				OFFSET 0.000000 -19.190928 -1.224953 
				CHANNELS 3 Xrotation Yrotation Zrotation
				End Site
				{
					OFFSET 0.000000 -2.449906 4.627600 
				}
			}
		}
	}
}
MOTION
Frames: 8
Frame Time: 0.016667
3.574939 43.346245 -0.805670 15.047700 1.914500 -57.249001 -12.158200 -6.031040 1.305590 20.233299 -4.638600 -0.110657 -7.391390 -5.975830 15.185200 5.679460 1.997570 7.373550 2.000000 -2.000000 0.000000 90.517097 -134.261993 1.887930 49.883301 -0.302942 0.104607 0.198060 -0.170050 135.587997 -2.000000 2.000000 0.000000 105.337997 42.026699 -117.011002 -38.681999 0.321573 0.085451 -0.075205 0.058483 -158.298996 -36.829517 20.590738 8.879120 41.172932 2.482402 2.907817 -9.018833 25.292459 5.299540 -20.469200 13.224853 7.263415 20.440983 -1.696549 -2.122224 -5.277257 1.518020 1.220552 
3.777261 43.235783 -0.875452 16.502100 3.258760 -61.007702 -12.107300 -7.253420 0.602625 20.213699 -4.706950 -0.626249 -7.978190 -6.264170 16.633699 5.581420 1.890480 8.041040 2.000000 -2.000000 0.000000 88.402702 -135.613007 3.098550 47.041500 -0.308017 0.100112 0.195602 -0.169924 136.466995 -2.000000 2.000000 0.000000 102.969002 40.583801 -119.175003 -38.564899 0.321748 0.085232 -0.074441 0.056491 -157.537003 -38.243114 23.013567 10.258708 42.756008 2.412600 2.997222 -10.874237 25.961599 6.099982 -22.014744 14.480652 7.928278 19.249474 -1.531261 -2.126009 -3.491945 3.748769 1.670493 
3.980996 43.114601 -0.873521 17.512501 3.408960 -63.534100 -11.738100 -8.621850 -0.620305 19.889700 -5.321910 -1.334890 -9.162140 -6.845750 18.019400 5.267900 1.578960 8.609820 2.000000 -2.000000 0.000000 87.099403 -137.237000 4.227560 44.541500 -0.312293 0.095953 0.193719 -0.169801 137.141006 -2.000000 2.000000 0.000000 100.558998 39.179501 -120.806999 -39.014099 0.321076 0.086068 -0.074268 0.056030 -157.360992 -38.877258 24.936962 10.533574 44.158413 2.395142 3.059168 -11.440717 27.062401 6.422050 -22.223904 15.638854 7.619967 18.119902 -1.426861 -2.091358 -2.462806 5.848316 1.985873 
4.111276 43.093853 -0.894550 17.419901 4.137780 -65.577904 -11.484600 -10.028800 -1.640540 19.653900 -5.565720 -1.983170 -9.989770 -7.390140 19.015400 5.130650 1.393810 9.012580 2.000000 -2.000000 0.000000 84.516296 -138.811005 4.998590 44.687901 -0.312047 0.096202 0.195766 -0.169933 136.408005 -2.000000 2.000000 0.000000 97.563599 37.970402 -122.313004 -39.707401 0.320027 0.087347 -0.074800 0.057437 -157.897995 -38.963234 25.284349 10.419137 44.354229 2.396120 3.065360 -11.980839 28.684120 6.930953 -22.626564 15.699038 8.341765 17.691410 -1.392530 -2.088224 -1.920454 7.053156 2.172728 
4.218054 42.995369 -0.913289 18.319300 4.831290 -67.650703 -11.553200 -11.084000 -2.253090 19.210600 -6.306870 -2.333470 -10.854400 -8.070050 19.526899 4.954130 1.111080 9.140360 2.000000 -2.000000 0.000000 82.411598 -140.406006 6.528070 43.808998 -0.313511 0.094700 0.194183 -0.169834 136.975006 -2.000000 2.000000 0.000000 94.841698 36.732399 -124.032997 -40.273800 0.319159 0.088383 -0.074839 0.057539 -157.936996 -39.749577 26.528433 9.879570 45.020458 2.394488 3.090097 -13.678513 29.724176 7.885034 -23.390432 16.699036 8.762897 17.110636 -1.294204 -2.071341 -0.872483 8.471721 2.339360 
4.230725 42.911449 -0.970243 18.459801 5.272380 -69.101799 -11.582500 -11.952600 -2.948420 18.846600 -6.442470 -2.737870 -11.666600 -8.645560 20.200399 4.758250 0.877185 9.377650 2.000000 -2.000000 0.000000 80.256798 -141.772995 6.567590 42.803200 -0.315157 0.092953 0.190911 -0.169577 138.147003 -2.000000 2.000000 0.000000 92.586403 35.093201 -125.089996 -41.162498 0.317775 0.089990 -0.075335 0.058814 -158.425995 -39.778534 27.213243 10.156342 45.588757 2.396735 3.118272 -14.499665 30.086489 8.298145 -23.600998 17.234295 9.997396 16.741140 -1.261654 -2.077263 -0.512470 8.478053 2.374876 
4.214615 42.874966 -1.055273 19.090099 5.345190 -70.018501 -11.383000 -12.232600 -3.274430 18.767500 -6.578850 -2.900650 -11.682600 -8.711750 20.335400 4.846420 0.994160 9.429530 2.000000 -2.000000 0.000000 78.180000 -143.026001 7.609640 42.842201 -0.315094 0.093022 0.189822 -0.169477 138.537003 -2.000000 2.000000 0.000000 90.380898 33.815701 -126.346001 -41.982800 0.316476 0.091454 -0.075801 0.059982 -158.875000 -40.023445 28.141033 9.656262 45.909931 2.420448 3.111426 -15.255588 30.531601 8.716675 -23.489559 18.103416 10.839117 16.050867 -1.188217 -2.067891 0.289022 8.410083 2.356677 
4.197922 42.907314 -1.119305 18.818701 5.742500 -70.702301 -11.473600 -12.514700 -3.526500 18.522499 -6.402250 -3.044890 -12.853200 -9.622980 20.716999 4.552170 0.428445 9.438590 2.000000 -2.000000 0.000000 76.542198 -144.324997 7.880050 42.471100 -0.315694 0.092371 0.186151 -0.169084 139.856003 -2.000000 2.000000 0.000000 88.622597 32.341900 -126.880997 -42.461399 0.315709 0.092300 -0.076130 0.060793 -159.186996 -39.671150 27.919806 9.806153 45.585831 2.430968 3.092687 -15.520967 31.240448 9.046523 -23.599667 18.031288 11.601996 15.952324 -1.192633 -2.061530 0.235936 8.517592 2.411515 
